<svg width="800" height="600" xmlns="http://www.w3.org/2000/svg">

 <g>
  <title>Layer 1</title>
  <rect stroke="#000" id="svg_1" height="41.32482" width="10" y="246.4274" x="288.48765" fill="#fff"/>
  <rect id="svg_2" height="6.43142" width="209.76326" y="240.43664" x="388.65353" stroke="#000" fill="#fff"/>
  <g stroke="null" id="svg_5">
   <path stroke="#000" id="svg_3" d="m389.24058,224.46202l6.41077,0l0,14.84174l-6.41077,0l0,-14.84174z" opacity="undefined" fill="#fff"/>
   <ellipse transform="rotate(2.57573 392.336 225.881)" stroke="#000" ry="3.18351" rx="3.40861" id="svg_4" cy="225.88055" cx="392.3358" fill="#fff"/>
  </g>
  <rect stroke="#000" id="svg_78" height="11.79413" width="403.71558" y="159.76708" x="196.96709" fill="#fff"/>
  <ellipse stroke="#000" ry="13.20818" rx="13.68962" id="svg_79" cy="158.10231" cx="601.90622" fill="#fff"/>
  <path id="svg_81" d="m199.89183,248.99452l75.79834,0l0,30.43847l-75.79834,0l0,-30.43847z" opacity="undefined" stroke="#000" fill="#fff"/>
  <rect id="svg_82" height="2.70357" width="75.15933" y="243.85751" x="200.13557" stroke="#000" fill="#fff"/>
  <rect stroke="#000" id="svg_83" height="69.79661" width="10" y="247.24207" x="388.67193" fill="#fff"/>
  <rect id="svg_88" height="0.48552" width="0" y="184.80499" x="416.38968" stroke="#000" fill="#fff"/>
  <ellipse stroke="#000" ry="13.92116" rx="13.2041" id="svg_90" cy="254.38785" cx="598.40136" fill="#fff"/>
  <rect stroke="#000" id="svg_92" height="8.80663" width="75.79834" y="427.4513" x="199.43904" fill="#fff"/>
  <rect stroke="#000" id="svg_93" height="8.80663" width="75.79834" y="407.63754" x="199.43904" fill="#fff"/>
  <rect stroke="#000" id="svg_94" height="8.80663" width="75.79834" y="398.03944" x="199.40163" fill="#fff"/>
  <rect stroke="#000" id="svg_96" height="8.80663" width="75.79834" y="417.64735" x="199.30513" fill="#fff"/>
  <rect stroke="#000" id="svg_97" height="8.80663" width="75.79834" y="388.77764" x="199.56492" fill="#fff"/>
  <rect stroke="#000" id="svg_98" height="109.46229" width="10" y="328.2904" x="288.97785" fill="#fff"/>
  <rect stroke="#000" id="svg_102" height="190.21533" width="10" y="248.37416" x="176.00729" fill="#fff"/>
  <line id="svg_103" y2="320.08284" x2="188.28373" y1="436.40067" x1="189.12055" stroke="#000" fill="none"/>
  <line id="svg_104" y2="320.91966" x2="285.77314" y1="437.23749" x1="286.60996" stroke="#000" fill="none"/>
  <g id="svg_109">
   <g id="svg_107">
    <rect id="svg_100" height="1.96079" width="10.78435" y="376.38685" x="194.50862" stroke="#000" fill="#fff"/>
    <rect id="svg_106" height="6.5963" width="4.74934" y="373.43759" x="189.04302" stroke="#000" fill="none"/>
   </g>
   <g id="svg_108">
    <rect id="svg_101" height="1.96079" width="10.78435" y="375.55003" x="269.40391" stroke="#000" fill="#fff"/>
    <rect id="svg_105" height="6.5963" width="4.74934" y="373.37718" x="280.86354" stroke="#000" fill="none"/>
   </g>
  </g>
  <rect stroke="#000" id="svg_116" height="11.83434" width="430.76995" y="439.0545" x="166.2731" fill="#fff"/>
  <ellipse stroke="#000" ry="13.92116" rx="13.2041" id="svg_117" cy="453.79646" cx="384.79153" fill="#fff"/>
  <ellipse stroke="#000" ry="13.92116" rx="13.2041" id="svg_118" cy="453.20474" cx="494.25918" fill="#fff"/>
  <ellipse stroke="#000" ry="13.92116" rx="13.2041" id="svg_119" cy="452.02131" cx="596.62621" fill="#fff"/>
  <g id="svg_127">
   <rect stroke="#000" id="svg_87" height="33.0156" width="4.36971" y="190.61666" x="390.12064" fill="#fff"/>
   <rect stroke="#000" id="svg_89" height="32.53008" width="4.36971" y="189.7629" x="458.71946" fill="#fff"/>
   <rect stroke="#000" id="svg_91" height="23.30513" width="142.58676" y="166.82601" x="340.95339" fill="#fff"/>
   <rect id="svg_123" height="10.71428" width="4.01785" y="190.01836" x="345.82818" stroke="#000" fill="#fff"/>
   <rect stroke="#000" id="svg_124" height="10.71428" width="4.01785" y="190.09025" x="357.00076" fill="#fff"/>
   <ellipse stroke="#000" ry="2.61628" rx="4.26462" id="svg_125" cy="201.542" cx="348.06617" fill="#fff"/>
   <ellipse stroke="#000" ry="2.61628" rx="4.26462" id="svg_126" cy="201.542" cx="359.16069" fill="#fff"/>
  </g>
  <g id="svg_130">
   <rect id="svg_113" height="2.55474" width="87.59124" y="314.9635" x="194.07186" stroke="#000" fill="#fff"/>
   <rect id="svg_114" height="6.20438" width="16.78832" y="313.13869" x="201.45985" stroke="#000" fill="#fff"/>
   <rect id="svg_115" height="6.20438" width="16.78832" y="312.40876" x="252.91971" stroke="#000" fill="#fff"/>
  </g>
  <g id="svg_133">
   <rect id="svg_131" height="4.95868" width="18.18182" y="431.81824" x="305.37194" stroke="#000" fill="#fff"/>
   <rect id="svg_132" height="4.95868" width="18.18182" y="431.68572" x="363.03423" stroke="#000" fill="#fff"/>
  </g>
  <g id="svg_135">
   <g stroke="null" id="svg_8">
    <path stroke="#000" id="svg_6" d="m397.63756,224.46201l6.41077,0l0,14.84174l-6.41077,0l0,-14.84174z" opacity="undefined" fill="#fff"/>
    <ellipse transform="rotate(2.57573 400.733 225.881)" stroke="#000" ry="3.18351" rx="3.40861" id="svg_7" cy="225.88055" cx="400.73277" fill="#fff"/>
   </g>
   <g stroke="null" id="svg_11">
    <path stroke="#000" id="svg_9" d="m389.24058,224.46201l6.41077,0l0,14.84174l-6.41077,0l0,-14.84174z" opacity="undefined" fill="#fff"/>
    <ellipse transform="rotate(2.57573 392.336 225.881)" stroke="#000" ry="3.18351" rx="3.40861" id="svg_10" cy="225.88055" cx="392.3358" fill="#fff"/>
   </g>
   <g stroke="null" id="svg_14">
    <path stroke="#000" id="svg_12" d="m414.71984,224.75155l6.41077,0l0,14.84174l-6.41077,0l0,-14.84174z" opacity="undefined" fill="#fff"/>
    <ellipse transform="rotate(2.57573 417.815 226.17)" stroke="#000" ry="3.18351" rx="3.40861" id="svg_13" cy="226.17008" cx="417.81506" fill="#fff"/>
   </g>
   <g stroke="null" id="svg_17">
    <path stroke="#000" id="svg_15" d="m406.32287,224.75155l6.41077,0l0,14.84174l-6.41077,0l0,-14.84174z" opacity="undefined" fill="#fff"/>
    <ellipse transform="rotate(2.57573 409.418 226.17)" stroke="#000" ry="3.18351" rx="3.40861" id="svg_16" cy="226.17008" cx="409.41808" fill="#fff"/>
   </g>
   <g stroke="null" id="svg_20">
    <path stroke="#000" id="svg_18" d="m431.80213,224.46201l6.41077,0l0,14.84174l-6.41077,0l0,-14.84174z" opacity="undefined" fill="#fff"/>
    <ellipse transform="rotate(2.57573 434.897 225.881)" stroke="#000" ry="3.18351" rx="3.40861" id="svg_19" cy="225.88055" cx="434.89735" fill="#fff"/>
   </g>
   <g stroke="null" id="svg_23">
    <path stroke="#000" id="svg_21" d="m423.40516,224.46201l6.41077,0l0,14.84174l-6.41077,0l0,-14.84174z" opacity="undefined" fill="#fff"/>
    <ellipse transform="rotate(2.57573 426.5 225.881)" stroke="#000" ry="3.18351" rx="3.40861" id="svg_22" cy="225.88055" cx="426.50037" fill="#fff"/>
   </g>
   <g stroke="null" id="svg_26">
    <path stroke="#000" id="svg_24" d="m448.88442,224.75154l6.41077,0l0,14.84174l-6.41077,0l0,-14.84174z" opacity="undefined" fill="#fff"/>
    <ellipse transform="rotate(2.57573 451.979 226.171)" stroke="#000" ry="3.18351" rx="3.40861" id="svg_25" cy="226.17008" cx="451.97963" fill="#fff"/>
   </g>
   <g stroke="null" id="svg_29">
    <path stroke="#000" id="svg_27" d="m440.48745,224.75154l6.41077,0l0,14.84174l-6.41077,0l0,-14.84174z" opacity="undefined" fill="#fff"/>
    <ellipse transform="rotate(2.57573 443.582 226.171)" stroke="#000" ry="3.18351" rx="3.40861" id="svg_28" cy="226.17008" cx="443.58266" fill="#fff"/>
   </g>
   <g stroke="null" id="svg_35">
    <path stroke="#000" id="svg_33" d="m457.28021,224.17248l6.41077,0l0,14.84174l-6.41077,0l0,-14.84174z" opacity="undefined" fill="#fff"/>
    <ellipse transform="rotate(2.57573 460.376 225.591)" stroke="#000" ry="3.18351" rx="3.40861" id="svg_34" cy="225.59102" cx="460.37542" fill="#fff"/>
   </g>
  </g>
  <g id="svg_164">
   <g stroke="null" id="svg_139">
    <path stroke="#000" id="svg_137" d="m474.2914,224.0729l6.41077,0l0,14.84174l-6.41077,0l0,-14.84174z" opacity="undefined" fill="#fff"/>
    <ellipse transform="rotate(2.57573 477.387 225.492)" stroke="#000" ry="3.18351" rx="3.40861" id="svg_138" cy="225.49144" cx="477.38661" fill="#fff"/>
   </g>
   <g stroke="null" id="svg_142">
    <path stroke="#000" id="svg_140" d="m465.89442,224.0729l6.41077,0l0,14.84174l-6.41077,0l0,-14.84174z" opacity="undefined" fill="#fff"/>
    <ellipse transform="rotate(2.57573 468.99 225.492)" stroke="#000" ry="3.18351" rx="3.40861" id="svg_141" cy="225.49144" cx="468.98964" fill="#fff"/>
   </g>
   <g stroke="null" id="svg_145">
    <path stroke="#000" id="svg_143" d="m491.37368,224.36244l6.41077,0l0,14.84174l-6.41077,0l0,-14.84174z" opacity="undefined" fill="#fff"/>
    <ellipse transform="rotate(2.57573 494.469 225.781)" stroke="#000" ry="3.18351" rx="3.40861" id="svg_144" cy="225.78097" cx="494.4689" fill="#fff"/>
   </g>
   <g stroke="null" id="svg_148">
    <path stroke="#000" id="svg_146" d="m482.97671,224.36244l6.41077,0l0,14.84174l-6.41077,0l0,-14.84174z" opacity="undefined" fill="#fff"/>
    <ellipse transform="rotate(2.57573 486.072 225.781)" stroke="#000" ry="3.18351" rx="3.40861" id="svg_147" cy="225.78097" cx="486.07192" fill="#fff"/>
   </g>
   <g stroke="null" id="svg_151">
    <path stroke="#000" id="svg_149" d="m508.45597,224.0729l6.41077,0l0,14.84174l-6.41077,0l0,-14.84174z" opacity="undefined" fill="#fff"/>
    <ellipse transform="rotate(2.57573 511.551 225.492)" stroke="#000" ry="3.18351" rx="3.40861" id="svg_150" cy="225.49144" cx="511.55118" fill="#fff"/>
   </g>
   <g stroke="null" id="svg_154">
    <path stroke="#000" id="svg_152" d="m500.059,224.0729l6.41077,0l0,14.84174l-6.41077,0l0,-14.84174z" opacity="undefined" fill="#fff"/>
    <ellipse transform="rotate(2.57573 503.154 225.492)" stroke="#000" ry="3.18351" rx="3.40861" id="svg_153" cy="225.49144" cx="503.15421" fill="#fff"/>
   </g>
   <g stroke="null" id="svg_157">
    <path stroke="#000" id="svg_155" d="m525.53826,224.36243l6.41077,0l0,14.84174l-6.41077,0l0,-14.84174z" opacity="undefined" fill="#fff"/>
    <ellipse transform="rotate(2.57573 528.633 225.782)" stroke="#000" ry="3.18351" rx="3.40861" id="svg_156" cy="225.78097" cx="528.63347" fill="#fff"/>
   </g>
   <g stroke="null" id="svg_160">
    <path stroke="#000" id="svg_158" d="m517.14129,224.36243l6.41077,0l0,14.84174l-6.41077,0l0,-14.84174z" opacity="undefined" fill="#fff"/>
    <ellipse transform="rotate(2.57573 520.236 225.782)" stroke="#000" ry="3.18351" rx="3.40861" id="svg_159" cy="225.78097" cx="520.2365" fill="#fff"/>
   </g>
   <g stroke="null" id="svg_163">
    <path stroke="#000" id="svg_161" d="m533.93405,223.78337l6.41077,0l0,14.84174l-6.41077,0l0,-14.84174z" opacity="undefined" fill="#fff"/>
    <ellipse transform="rotate(2.57573 537.03 225.202)" stroke="#000" ry="3.18351" rx="3.40861" id="svg_162" cy="225.20191" cx="537.02926" fill="#fff"/>
   </g>
  </g>
  <g id="svg_192">
   <g stroke="null" id="svg_167">
    <path stroke="#000" id="svg_165" d="m550.55613,224.0729l6.41077,0l0,14.84174l-6.41077,0l0,-14.84174z" opacity="undefined" fill="#fff"/>
    <ellipse transform="rotate(2.57573 553.652 225.492)" stroke="#000" ry="3.18351" rx="3.40861" id="svg_166" cy="225.49144" cx="553.65134" fill="#fff"/>
   </g>
   <g stroke="null" id="svg_170">
    <path stroke="#000" id="svg_168" d="m542.15915,224.0729l6.41077,0l0,14.84174l-6.41077,0l0,-14.84174z" opacity="undefined" fill="#fff"/>
    <ellipse transform="rotate(2.57573 545.255 225.492)" stroke="#000" ry="3.18351" rx="3.40861" id="svg_169" cy="225.49144" cx="545.25437" fill="#fff"/>
   </g>
   <g stroke="null" id="svg_173">
    <path stroke="#000" id="svg_171" d="m567.63841,224.36244l6.41077,0l0,14.84174l-6.41077,0l0,-14.84174z" opacity="undefined" fill="#fff"/>
    <ellipse transform="rotate(2.57573 570.734 225.781)" stroke="#000" ry="3.18351" rx="3.40861" id="svg_172" cy="225.78097" cx="570.73363" fill="#fff"/>
   </g>
   <g stroke="null" id="svg_176">
    <path stroke="#000" id="svg_174" d="m559.24144,224.36244l6.41077,0l0,14.84174l-6.41077,0l0,-14.84174z" opacity="undefined" fill="#fff"/>
    <ellipse transform="rotate(2.57573 562.337 225.781)" stroke="#000" ry="3.18351" rx="3.40861" id="svg_175" cy="225.78097" cx="562.33666" fill="#fff"/>
   </g>
   <g stroke="null" id="svg_179">
    <path stroke="#000" id="svg_177" d="m584.7207,224.0729l6.41077,0l0,14.84174l-6.41077,0l0,-14.84174z" opacity="undefined" fill="#fff"/>
    <ellipse transform="rotate(2.57573 587.816 225.492)" stroke="#000" ry="3.18351" rx="3.40861" id="svg_178" cy="225.49144" cx="587.81592" fill="#fff"/>
   </g>
   <g stroke="null" id="svg_182">
    <path stroke="#000" id="svg_180" d="m576.32373,224.0729l6.41077,0l0,14.84174l-6.41077,0l0,-14.84174z" opacity="undefined" fill="#fff"/>
    <ellipse transform="rotate(2.57573 579.419 225.492)" stroke="#000" ry="3.18351" rx="3.40861" id="svg_181" cy="225.49144" cx="579.41895" fill="#fff"/>
   </g>
   <g stroke="null" id="svg_185">
    <path stroke="#000" id="svg_183" d="m601.80299,224.36243l6.41077,0l0,14.84174l-6.41077,0l0,-14.84174z" opacity="undefined" fill="#fff"/>
    <ellipse transform="rotate(2.57573 604.898 225.782)" stroke="#000" ry="3.18351" rx="3.40861" id="svg_184" cy="225.78097" cx="604.89821" fill="#fff"/>
   </g>
   <g stroke="null" id="svg_188">
    <path stroke="#000" id="svg_186" d="m593.40602,224.36243l6.41077,0l0,14.84174l-6.41077,0l0,-14.84174z" opacity="undefined" fill="#fff"/>
    <ellipse transform="rotate(2.57573 596.501 225.782)" stroke="#000" ry="3.18351" rx="3.40861" id="svg_187" cy="225.78097" cx="596.50123" fill="#fff"/>
   </g>
   <g stroke="null" id="svg_191">
    <path stroke="#000" id="svg_189" d="m610.19878,223.78337l6.41077,0l0,14.84174l-6.41077,0l0,-14.84174z" opacity="undefined" fill="#fff"/>
    <ellipse transform="rotate(2.57573 613.295 225.202)" stroke="#000" ry="3.18351" rx="3.40861" id="svg_190" cy="225.20191" cx="613.29399" fill="#fff"/>
   </g>
  </g>
  <g id="svg_248">
   <g stroke="null" id="svg_223">
    <path stroke="#000" id="svg_221" d="m550.55613,224.0729l6.41077,0l0,14.84174l-6.41077,0l0,-14.84174z" opacity="undefined" fill="#fff"/>
    <ellipse transform="rotate(2.57573 553.652 225.492)" stroke="#000" ry="3.18351" rx="3.40861" id="svg_222" cy="225.49144" cx="553.65134" fill="#fff"/>
   </g>
   <g stroke="null" id="svg_226">
    <path stroke="#000" id="svg_224" d="m542.15915,224.0729l6.41077,0l0,14.84174l-6.41077,0l0,-14.84174z" opacity="undefined" fill="#fff"/>
    <ellipse transform="rotate(2.57573 545.255 225.492)" stroke="#000" ry="3.18351" rx="3.40861" id="svg_225" cy="225.49144" cx="545.25437" fill="#fff"/>
   </g>
   <g stroke="null" id="svg_229">
    <path stroke="#000" id="svg_227" d="m567.63841,224.36244l6.41077,0l0,14.84174l-6.41077,0l0,-14.84174z" opacity="undefined" fill="#fff"/>
    <ellipse transform="rotate(2.57573 570.734 225.781)" stroke="#000" ry="3.18351" rx="3.40861" id="svg_228" cy="225.78097" cx="570.73363" fill="#fff"/>
   </g>
   <g stroke="null" id="svg_232">
    <path stroke="#000" id="svg_230" d="m559.24144,224.36244l6.41077,0l0,14.84174l-6.41077,0l0,-14.84174z" opacity="undefined" fill="#fff"/>
    <ellipse transform="rotate(2.57573 562.337 225.781)" stroke="#000" ry="3.18351" rx="3.40861" id="svg_231" cy="225.78097" cx="562.33666" fill="#fff"/>
   </g>
   <g stroke="null" id="svg_235">
    <path stroke="#000" id="svg_233" d="m584.7207,224.0729l6.41077,0l0,14.84174l-6.41077,0l0,-14.84174z" opacity="undefined" fill="#fff"/>
    <ellipse transform="rotate(2.57573 587.816 225.492)" stroke="#000" ry="3.18351" rx="3.40861" id="svg_234" cy="225.49144" cx="587.81592" fill="#fff"/>
   </g>
   <g stroke="null" id="svg_238">
    <path stroke="#000" id="svg_236" d="m576.32373,224.0729l6.41077,0l0,14.84174l-6.41077,0l0,-14.84174z" opacity="undefined" fill="#fff"/>
    <ellipse transform="rotate(2.57573 579.419 225.492)" stroke="#000" ry="3.18351" rx="3.40861" id="svg_237" cy="225.49144" cx="579.41895" fill="#fff"/>
   </g>
   <g stroke="null" id="svg_241">
    <path stroke="#000" id="svg_239" d="m601.80299,224.36243l6.41077,0l0,14.84174l-6.41077,0l0,-14.84174z" opacity="undefined" fill="#fff"/>
    <ellipse transform="rotate(2.57573 604.898 225.782)" stroke="#000" ry="3.18351" rx="3.40861" id="svg_240" cy="225.78097" cx="604.89821" fill="#fff"/>
   </g>
   <g stroke="null" id="svg_244">
    <path stroke="#000" id="svg_242" d="m593.40602,224.36243l6.41077,0l0,14.84174l-6.41077,0l0,-14.84174z" opacity="undefined" fill="#fff"/>
    <ellipse transform="rotate(2.57573 596.501 225.782)" stroke="#000" ry="3.18351" rx="3.40861" id="svg_243" cy="225.78097" cx="596.50123" fill="#fff"/>
   </g>
   <g stroke="null" id="svg_247">
    <path stroke="#000" id="svg_245" d="m610.19878,223.78337l6.41077,0l0,14.84174l-6.41077,0l0,-14.84174z" opacity="undefined" fill="#fff"/>
    <ellipse transform="rotate(2.57573 613.295 225.202)" stroke="#000" ry="3.18351" rx="3.40861" id="svg_246" cy="225.20191" cx="613.29399" fill="#fff"/>
   </g>
  </g>
  <g id="svg_276">
   <g stroke="null" id="svg_251">
    <path stroke="#000" id="svg_249" d="m626.43176,223.68379l6.41077,0l0,14.84174l-6.41077,0l0,-14.84174z" opacity="undefined" fill="#fff"/>
    <ellipse transform="rotate(2.57573 629.528 225.103)" stroke="#000" ry="3.18351" rx="3.40861" id="svg_250" cy="225.10234" cx="629.52696" fill="#fff"/>
   </g>
   <g stroke="null" id="svg_254">
    <path stroke="#000" id="svg_252" d="m618.03478,223.68379l6.41077,0l0,14.84174l-6.41077,0l0,-14.84174z" opacity="undefined" fill="#fff"/>
    <ellipse transform="rotate(2.57573 621.131 225.103)" stroke="#000" ry="3.18351" rx="3.40861" id="svg_253" cy="225.10234" cx="621.12999" fill="#fff"/>
   </g>
   <g stroke="null" id="svg_257">
    <path stroke="#000" id="svg_255" d="m643.51404,223.97333l6.41077,0l0,14.84174l-6.41077,0l0,-14.84174z" opacity="undefined" fill="#fff"/>
    <ellipse transform="rotate(2.57573 646.61 225.392)" stroke="#000" ry="3.18351" rx="3.40861" id="svg_256" cy="225.39187" cx="646.60925" fill="#fff"/>
   </g>
   <g stroke="null" id="svg_260">
    <path stroke="#000" id="svg_258" d="m635.11707,223.97333l6.41077,0l0,14.84174l-6.41077,0l0,-14.84174z" opacity="undefined" fill="#fff"/>
    <ellipse transform="rotate(2.57573 638.213 225.392)" stroke="#000" ry="3.18351" rx="3.40861" id="svg_259" cy="225.39187" cx="638.21228" fill="#fff"/>
   </g>
   <g stroke="null" id="svg_263">
    <path stroke="#000" id="svg_261" d="m660.59633,223.68379l6.41077,0l0,14.84174l-6.41077,0l0,-14.84174z" opacity="undefined" fill="#fff"/>
    <ellipse transform="rotate(2.57573 663.692 225.103)" stroke="#000" ry="3.18351" rx="3.40861" id="svg_262" cy="225.10234" cx="663.69154" fill="#fff"/>
   </g>
   <g stroke="null" id="svg_266">
    <path stroke="#000" id="svg_264" d="m652.19936,223.68379l6.41077,0l0,14.84174l-6.41077,0l0,-14.84174z" opacity="undefined" fill="#fff"/>
    <ellipse transform="rotate(2.57573 655.295 225.103)" stroke="#000" ry="3.18351" rx="3.40861" id="svg_265" cy="225.10234" cx="655.29457" fill="#fff"/>
   </g>
   <g stroke="null" id="svg_269">
    <path stroke="#000" id="svg_267" d="m677.67862,223.97332l6.41077,0l0,14.84174l-6.41077,0l0,-14.84174z" opacity="undefined" fill="#fff"/>
    <ellipse transform="rotate(2.57573 680.774 225.393)" stroke="#000" ry="3.18351" rx="3.40861" id="svg_268" cy="225.39187" cx="680.77383" fill="#fff"/>
   </g>
   <g stroke="null" id="svg_272">
    <path stroke="#000" id="svg_270" d="m669.28165,223.97332l6.41077,0l0,14.84174l-6.41077,0l0,-14.84174z" opacity="undefined" fill="#fff"/>
    <ellipse transform="rotate(2.57573 672.377 225.393)" stroke="#000" ry="3.18351" rx="3.40861" id="svg_271" cy="225.39187" cx="672.37686" fill="#fff"/>
   </g>
   <g stroke="null" id="svg_275">
    <path stroke="#000" id="svg_273" d="m686.07441,223.39426l6.41077,0l0,14.84174l-6.41077,0l0,-14.84174z" opacity="undefined" fill="#fff"/>
    <ellipse transform="rotate(2.57573 689.171 224.813)" stroke="#000" ry="3.18351" rx="3.40861" id="svg_274" cy="224.81281" cx="689.16962" fill="#fff"/>
   </g>
  </g>
 </g>
</svg>