<svg width="799.9999999999999" height="600" xmlns="http://www.w3.org/2000/svg">
 <g>
  <title>Layer 1</title>
  <rect fill="#fff" stroke="#000" x="149.2228" y="204.66321" width="10" height="140" id="svg_1"/>
  <path fill="#fff" stroke="#000" opacity="undefined" d="m154.23023,208.27131c-8.28729,0 -15,-6.71271 -15,-15c0,-8.28729 6.71271,-15 15,-15c8.28729,0 15,6.71271 15,15c0,8.28729 -6.71271,15 -15,15z" id="svg_2"/>
  <ellipse fill="#fff" stroke="#000" cx="153.74802" cy="137.90898" id="svg_3" rx="5" ry="40"/>
  <ellipse fill="#fff" stroke="#000" cx="204.35588" cy="215.00031" id="svg_4" rx="5" ry="39.82801" transform="rotate(-65.095 204.356 215)"/>
  <path fill="#fff" stroke="#000" opacity="undefined" d="m105.31054,258.39335c-2.76243,0 -5,-17.82358 -5,-39.82801c0,-22.00442 2.23757,-39.82801 5,-39.82801c2.76243,0 5,17.82358 5,39.82801c0,22.00442 -2.23757,39.82801 -5,39.82801z" id="svg_5" transform="rotate(-119.055 105.311 218.565)"/>
  <rect fill="#fff" stroke="#000" x="337.82385" y="205.18135" width="10" height="140" id="svg_6"/>
  <path fill="#fff" stroke="#000" opacity="undefined" d="m342.83128,208.78944c-8.28729,0 -15,-6.7127 -15,-15c0,-8.28729 6.71271,-15 15,-15c8.2873,0 15,6.71271 15,15c0,8.2873 -6.7127,15 -15,15z" id="svg_7"/>
  <ellipse fill="#fff" stroke="#000" cx="322.65996" cy="142.05406" id="svg_8" rx="5" ry="40"/>
  <ellipse fill="#fff" stroke="#000" cx="397.62015" cy="197.90187" id="svg_9" rx="5" ry="39.82801"/>
  <path fill="#fff" stroke="#000" opacity="undefined" d="m308.9375,276.00992c-2.76243,0 -5,-17.82358 -5,-39.828c0,-22.00442 2.23757,-39.82801 5,-39.82801c2.76243,0 5,17.82359 5,39.82801c0,22.00442 -2.23757,39.828 -5,39.828z" id="svg_10"/>
  <rect fill="#fff" stroke="#000" x="517.09846" y="213.4715" width="10" height="140" id="svg_16"/>
  <path fill="#fff" stroke="#000" opacity="undefined" d="m522.10589,217.07959c-8.28729,0 -15,-6.7127 -15,-15c0,-8.28729 6.71271,-15 15,-15c8.2873,0 15,6.71271 15,15c0,8.2873 -6.7127,15 -15,15z" id="svg_17"/>
  <ellipse fill="#fff" cx="479.13664" cy="168.47893" id="svg_18" rx="5" ry="40" stroke="#000"/>
  <ellipse fill="#fff" cx="570.15901" cy="175.10394" id="svg_19" rx="5" ry="39.82801" stroke="#000"/>
  <path fill="#fff" stroke="#000" opacity="undefined" d="m509.97377,295.69904c-2.76243,0 -5,-17.82358 -5,-39.828c0,-22.00442 2.23757,-39.82801 5,-39.82801c2.76243,0 5,17.82359 5,39.82801c0,22.00442 -2.23757,39.828 -5,39.828z" id="svg_20"/>
  <rect fill="#fff" stroke="#000" x="149.19639" y="204.5654" width="10" height="140" id="svg_21"/>
  <path fill="#fff" stroke="#000" opacity="undefined" d="m154.20382,208.17348c-8.28729,0 -15,-6.7127 -15,-15c0,-8.28729 6.71271,-15 15,-15c8.2873,0 15,6.71271 15,15c0,8.2873 -6.7127,15 -15,15z" id="svg_22"/>
  <path transform="rotate(-82.4171 99.33 185.168)" fill="#fff" stroke="#000" opacity="undefined" d="m99.32981,225.16806c-2.76243,0 -5,-17.90055 -5,-40c0,-22.09945 2.23757,-40 5,-40c2.76243,0 5,17.90055 5,40c0,22.09945 -2.23757,40 -5,40z" id="svg_23"/>
  <ellipse transform="rotate(-150.498 180.828 145.96)" fill="#fff" cx="180.82837" cy="145.95974" id="svg_24" rx="5" ry="39.82801" stroke="#000"/>
  <path transform="rotate(151.83 179.572 241.608)" fill="#fff" stroke="#000" opacity="undefined" d="m179.5717,281.43579c-2.76243,0 -5,-17.82358 -5,-39.828c0,-22.00442 2.23757,-39.82801 5,-39.82801c2.76243,0 5,17.82359 5,39.82801c0,22.00442 -2.23757,39.828 -5,39.828z" id="svg_25"/>
 </g>

</svg>