<svg width="799.9999999999999" height="600" xmlns="http://www.w3.org/2000/svg">
 <g>
  <title>Layer 1</title>
  <rect fill="#fff" stroke="#000" x="149.2228" y="204.66321" width="10" height="140" id="svg_1"/>
  <path fill="#fff" stroke="#000" opacity="undefined" d="m154.23023,208.27131c-8.28729,0 -15,-6.71271 -15,-15c0,-8.28729 6.71271,-15 15,-15c8.28729,0 15,6.71271 15,15c0,8.28729 -6.71271,15 -15,15z" id="svg_2"/>
  <ellipse fill="#fff" stroke="#000" cx="153.74802" cy="137.90898" id="svg_3" rx="5" ry="40"/>
  <ellipse fill="#fff" stroke="#000" cx="204.35588" cy="215.00031" id="svg_4" rx="5" ry="39.82801" transform="rotate(-65.095 204.356 215)"/>
  <path fill="#fff" stroke="#000" opacity="undefined" d="m105.31054,258.39335c-2.76243,0 -5,-17.82358 -5,-39.82801c0,-22.00442 2.23757,-39.82801 5,-39.82801c2.76243,0 5,17.82358 5,39.82801c0,22.00442 -2.23757,39.82801 -5,39.82801z" id="svg_5" transform="rotate(-119.055 105.311 218.565)"/>
  <rect fill="#fff" stroke="#000" x="337.82385" y="205.18135" width="10" height="140" id="svg_6"/>
  <path fill="#fff" stroke="#000" opacity="undefined" d="m342.83128,208.78944c-8.28729,0 -15,-6.7127 -15,-15c0,-8.28729 6.71271,-15 15,-15c8.2873,0 15,6.71271 15,15c0,8.2873 -6.7127,15 -15,15z" id="svg_7"/>
  <ellipse fill="#fff" stroke="#000" cx="322.65996" cy="142.05406" id="svg_8" rx="5" ry="40"/>
  <ellipse fill="#fff" stroke="#000" cx="397.62015" cy="197.90187" id="svg_9" rx="5" ry="39.82801"/>
  <path fill="#fff" stroke="#000" opacity="undefined" d="m308.9375,276.00992c-2.76243,0 -5,-17.82358 -5,-39.828c0,-22.00442 2.23757,-39.82801 5,-39.82801c2.76243,0 5,17.82359 5,39.82801c0,22.00442 -2.23757,39.828 -5,39.828z" id="svg_10"/>
  <rect fill="#fff" stroke="#000" x="149.17393" y="204.66647" width="10" height="140" id="svg_16"/>
  <path fill="#fff" stroke="#000" opacity="undefined" d="m154.18136,208.27456c-8.28729,0 -15,-6.7127 -15,-15c0,-8.28729 6.71271,-15 15,-15c8.2873,0 15,6.71271 15,15c0,8.2873 -6.7127,15 -15,15z" id="svg_17"/>
  <ellipse transform="rotate(-51.8154 111.212 159.674)" fill="#fff" cx="111.21211" cy="159.6739" id="svg_18" rx="5" ry="40" stroke="#000"/>
  <ellipse transform="rotate(-118.628 202.234 166.299)" fill="#fff" cx="202.23448" cy="166.29891" id="svg_19" rx="5" ry="39.82801" stroke="#000"/>
  <path transform="rotate(-168.75 142.049 247.066)" fill="#fff" stroke="#000" opacity="undefined" d="m142.04924,286.89401c-2.76243,0 -5,-17.82358 -5,-39.828c0,-22.00442 2.23757,-39.82801 5,-39.82801c2.76243,0 5,17.82359 5,39.82801c0,22.00442 -2.23757,39.828 -5,39.828z" id="svg_20"/>
  <rect fill="#fff" stroke="#000" x="694.47941" y="215.25722" width="10" height="140" id="svg_21"/>
  <path fill="#fff" stroke="#000" opacity="undefined" d="m699.48684,218.8653c-8.28729,0 -15,-6.7127 -15,-15c0,-8.28729 6.71271,-15 15,-15c8.2873,0 15,6.71271 15,15c0,8.2873 -6.7127,15 -15,15z" id="svg_22"/>
  <path fill="#fff" stroke="#000" opacity="undefined" d="m644.61283,235.85988c-2.76243,0 -5,-17.90055 -5,-40c0,-22.09945 2.23757,-40 5,-40c2.76243,0 5,17.90055 5,40c0,22.09945 -2.23757,40 -5,40z" id="svg_23" transform="rotate(-82.4171 644.613 195.86)"/>
  <ellipse fill="#fff" cx="726.11139" cy="156.65156" id="svg_24" rx="5" ry="39.82801" stroke="#000" transform="rotate(-150.498 726.111 156.652)"/>
  <path fill="#fff" stroke="#000" opacity="undefined" d="m724.85472,292.12761c-2.76243,0 -5,-17.82358 -5,-39.828c0,-22.00442 2.23757,-39.82801 5,-39.82801c2.76243,0 5,17.82359 5,39.82801c0,22.00442 -2.23757,39.828 -5,39.828z" id="svg_25" transform="rotate(151.83 724.855 252.3)"/>
 </g>

</svg>